<?xml version="1.0" encoding="UTF-8" standalone="no"?>
<!-- Created with Inkscape (http://www.inkscape.org/) -->

<svg
   width="2000"
   height="2000"
   viewBox="0 0 529.16665 529.16666"
   version="1.1"
   id="svg1"
   xml:space="preserve"
   inkscape:version="1.4 (e7c3feb100, 2024-10-09)"
   sodipodi:docname="logoblue.svg"
   xmlns:inkscape="http://www.inkscape.org/namespaces/inkscape"
   xmlns:sodipodi="http://sodipodi.sourceforge.net/DTD/sodipodi-0.dtd"
   xmlns="http://www.w3.org/2000/svg"
   xmlns:svg="http://www.w3.org/2000/svg"><sodipodi:namedview
     id="namedview1"
     pagecolor="#ffffff"
     bordercolor="#000000"
     borderopacity="0.25"
     inkscape:showpageshadow="2"
     inkscape:pageopacity="0.0"
     inkscape:pagecheckerboard="0"
     inkscape:deskcolor="#d1d1d1"
     inkscape:document-units="mm"
     inkscape:zoom="0.5"
     inkscape:cx="690"
     inkscape:cy="1135"
     inkscape:window-width="2752"
     inkscape:window-height="1083"
     inkscape:window-x="0"
     inkscape:window-y="0"
     inkscape:window-maximized="1"
     inkscape:current-layer="layer1" /><defs
     id="defs1" /><rect
     style="display:inline;fill:#2b5279;fill-opacity:1;stroke-width:0.264583"
     id="rect30"
     width="533.92914"
     height="535.25208"
     x="-2.3812499"
     y="-2.1166666" /><path
     style="display:inline;fill:#282828;fill-opacity:1;stroke-width:0.264583"
     d="m 33.395328,535.02681 451.585912,-366.48723 50.70921,60.47999 1.62821,305.30567 z"
     id="path31"
     sodipodi:nodetypes="ccccc" /><path
     style="display:inline;fill:#000000;fill-opacity:1;stroke-width:0.264583"
     d="m 487.36249,198.70208 52.91667,65.61667 -4.23333,272.25624 -470.938975,5.23348 z"
     id="path32"
     sodipodi:nodetypes="ccccc" /><path
     style="display:inline;fill:#cc9832;fill-opacity:1;stroke-width:0.264583"
     d="m 480.44369,234.98336 58.37166,67.35194 2.61925,252.94386 -429.74267,-5.42557 z"
     id="path33"
     sodipodi:nodetypes="ccccc" /><g
     inkscape:label="Layer 1"
     inkscape:groupmode="layer"
     id="layer1"><path
       style="display:none;fill:#28425e;stroke:none"
       d="M -629.36395,-23.943775 V 505.21962 h 76.06724 c -2.67175,-12.94442 -9.11051,-27.33571 -9.43759,-40.51408 -0.71033,-28.61963 7.07827,-59.16359 10.12724,-87.64268 1.26958,-11.85856 3.10535,-23.67919 4.20937,-35.55317 0.63749,-6.85627 0.40885,-15.993 3.21859,-22.32408 3.0992,-6.98326 9.99721,-13.17196 14.82658,-19.01681 9.50917,-11.50866 18.96882,-23.08716 28.31789,-34.72635 9.12739,-11.36321 18.50888,-22.52044 27.61608,-33.89953 6.0868,-7.60522 12.21267,-16.13866 21.99361,-19.01681 1.54036,6.555 6.89533,11.58355 12.40227,15.13091 2.42513,1.56217 8.31275,3.00363 8.39451,6.45568 0.19506,8.23714 -11.58855,18.04276 -16.34115,23.88839 -12.35065,15.19119 -24.76666,30.33318 -37.17745,45.47498 -4.74877,5.79373 -13.68325,13.37407 -15.70253,20.67045 -6.49407,23.46539 -5.88073,51.0458 -8.86149,75.24042 -1.98143,16.08308 -7.69612,36.01694 -6.09011,52.08952 1.79737,17.98773 10.29463,35.74962 12.94007,53.74316 13.01737,0 19.39008,-7.9227 28.93862,-16.0579 15.74273,-13.41248 31.27749,-27.08858 47.12862,-40.36924 67.54673,-56.59299 133.31962,-115.31456 200.91672,-171.84094 18.89653,-15.80174 37.5534,-31.92819 56.22361,-47.99689 4.26172,-3.66789 14.86455,-16.45899 20.59646,-16.38579 4.30224,0.0549 10.9134,10.91352 13.5066,14.01316 11.00413,13.15323 22.01109,29.75757 35.34964,40.51407 V -23.943775 h -529.1634 M -316,75.27436 c -1.19016,27.29599 -14.93763,57.64675 -30.71794,79.37451 -6.69271,9.21513 -17.05963,19.05846 -24.75881,27.76242 -0.34031,0.38473 2.25743,11.79756 0.0828,24.31202 -3.01148,17.33059 -13.86732,30.33147 -28.11469,40.16871 -5.00814,3.45793 -11.22799,7.96296 -17.36317,8.62862 1.1037,-1.53673 13.39379,-18.25759 5.8662,-27.28499 -1.55739,-1.86768 -5.34164,-7.52977 -5.87831,-7.58407 -0.69177,-0.07 -11.24766,10.24449 -12.53201,9.76631 -5.91009,-1.68494 -19.86303,-12.54837 -22.17608,-18.94801 -0.30997,-0.85761 2.81856,-8.05676 7.34166,-14.29422 0,-0.22859 -10.96652,-10.7961 -23.17429,-3.73599 -8.9249,5.16154 -10.42003,7.90241 -11.45851,8.33781 8.30648,-27.10141 20.37089,-43.61996 40.51408,-51.07386 6.95316,-2.57298 24.47548,-3.02963 24.9917,-3.43128 0.54682,-0.42546 15.5071,-21.392 23.93092,-29.47939 19.90087,-19.10613 46.22057,-36.0668 73.44641,-42.51859 z"
       id="path29"
       sodipodi:nodetypes="cccssssssscssssssscscssssccccsssscsscscscsssc" /><g
       id="g11"
       transform="matrix(0.97171555,0,0,0.97171555,650.31752,-39.662697)"><path
         style="display:inline;fill:#000000;stroke-width:0.272285"
         d="m -613.07105,253.30141 36.70739,-188.557198 189.70923,37.298918 -37.30354,187.5285 z"
         id="path16" /><path
         style="display:inline;fill:#282828;fill-opacity:1;stroke-width:0.272285"
         d="m -602.23071,231.17827 46.79894,-154.913009 157.04024,46.764909 -47.99019,156.03618 z"
         id="path18" /><path
         style="display:inline;fill:#4c4c4c;fill-opacity:1;stroke-width:0.266999"
         d="m -556.10003,96.635565 137.3552,24.896265 -25.89492,136.59281 -136.25065,-25.17238 z"
         id="path19"
         inkscape:label="path19"
         sodipodi:nodetypes="ccccc" /><path
         style="display:inline;fill:#282828;fill-opacity:1;stroke-width:0.272285"
         d="m -542.63439,127.81217 7.21555,-12.93353 12.79738,6.94327 -7.21554,12.79738 z"
         id="path20" /><path
         style="display:inline;fill:#282828;fill-opacity:1;stroke-width:0.272285"
         d="m -463.94409,138.15899 9.12154,-15.52023 14.83952,9.25768 -8.84926,14.97566 z"
         id="path21" /><path
         style="display:inline;fill:#282828;fill-opacity:1;stroke-width:0.272285"
         d="m -478.91975,175.73429 11.16367,-12.38896 -11.84438,-10.34682 -10.61911,11.43596 z"
         id="path22" /><path
         style="display:inline;fill:#282828;fill-opacity:1;stroke-width:0.272285"
         d="m -533.92127,190.84609 6.80711,-19.46836 -19.6045,-7.0794 -7.0794,19.33222 z"
         id="path23" /><path
         style="display:inline;fill:#282828;fill-opacity:1;stroke-width:0.272285"
         d="m -519.89861,240.40192 5.03727,-8.84926 -9.52997,-5.03726 -4.90112,9.25768 z"
         id="path24" /><path
         style="display:inline;fill:#282828;fill-opacity:1;stroke-width:0.272285"
         d="m -477.83061,219.43599 13.75038,-13.34195 12.38895,12.25281 -12.38895,12.5251 z"
         id="path25" /></g><path
       d="m 312.80485,99.079069 c -1.19016,27.295991 -14.93763,57.646751 -30.71794,79.374511 -6.69271,9.21513 -17.05963,19.05846 -24.75881,27.76243 -0.34031,0.38472 2.25743,11.79755 0.0828,24.31201 -3.01148,17.33059 -13.86732,30.33147 -28.11469,40.16871 -5.00814,3.45793 -11.22799,7.96296 -17.36317,8.62862 1.10371,-1.53673 13.3938,-18.25759 5.8662,-27.28499 -1.55738,-1.86768 -5.34164,-7.52977 -5.87831,-7.58407 -0.69177,-0.07 -11.24766,10.2445 -12.532,9.76632 -5.91009,-1.68494 -19.86304,-12.54837 -22.17609,-18.94801 -0.30997,-0.85761 2.81856,-8.05677 7.34167,-14.29422 0,-0.22859 -10.96653,-10.7961 -23.17429,-3.73599 -8.92491,5.16154 -10.42004,7.90241 -11.45852,8.3378 8.30648,-27.10141 20.37089,-43.61996 40.51408,-51.07386 6.95316,-2.57298 24.47549,-3.02962 24.99171,-3.43128 0.54681,-0.42546 15.50709,-21.392 23.93091,-29.47939 19.90087,-19.10613 46.22057,-36.0668 73.44641,-42.518591 z"
       style="display:inline;fill:#ffffff;stroke:none"
       id="path1" /><path
       style="fill:#ffffff;fill-opacity:1;stroke-width:0.264583"
       d="m 126.53698,529.3651 -12.89844,-52.85052 14.68438,-130.04271 64.62447,-78.18437 c 0,0 5.48896,-6.05339 5.68854,-12.36927 0.0224,-0.70754 -7.48662,-2.73232 -13.19056,-7.33942 -5.70395,-4.60709 -9.32148,-12.10513 -9.39861,-12.0968 -6.01979,0.65071 -10.72414,6.85293 -10.72414,6.85293 l -81.815857,99.40772 -17.261712,145.84353 9.921875,41.34115 z"
       id="path30"
       sodipodi:nodetypes="ccccsssccccc" /></g></svg>
